<?xml version="1.0" standalone="no"?>
<!DOCTYPE svg PUBLIC "-//W3C//DTD SVG 20010904//EN"
 "http://www.w3.org/TR/2001/REC-SVG-20010904/DTD/svg10.dtd">
<svg version="1.0" xmlns="http://www.w3.org/2000/svg"
 width="512.000000pt" height="512.000000pt" viewBox="0 0 512.000000 512.000000"
 preserveAspectRatio="xMidYMid meet">

<g transform="translate(0.000000,512.000000) scale(0.100000,-0.100000)"
fill="#8ccff9" stroke="none">
<path d="M1400 5070 c-301 -29 -624 -105 -865 -204 l-60 -24 30 -11 c109 -40
145 -71 145 -123 0 -61 -36 -90 -129 -102 -117 -15 -261 -90 -353 -183 l-48
-48 49 -18 c59 -21 111 -75 111 -116 0 -18 -17 -52 -49 -94 -143 -194 -230
-506 -231 -824 0 -282 134 -547 425 -838 215 -216 508 -423 824 -586 97 -50
191 -131 220 -193 25 -51 28 -140 6 -192 -42 -102 -149 -199 -312 -282 -149
-76 -330 -135 -485 -157 l-48 -6 0 -49 c0 -68 25 -125 65 -150 41 -25 60 -75
45 -114 -24 -65 -2 -164 46 -207 11 -9 43 -29 72 -43 57 -29 67 -45 77 -118
11 -84 70 -146 146 -155 67 -7 92 -20 131 -66 119 -143 456 -170 688 -56 265
131 544 599 653 1099 44 199 60 356 60 585 0 370 -60 634 -185 822 -65 96
-136 149 -271 202 -146 57 -266 78 -491 85 -287 10 -406 43 -508 144 -174 169
-48 393 282 505 162 55 378 63 581 23 160 -32 305 -53 449 -65 130 -12 290
-19 290 -14 0 2 -19 27 -41 56 -124 155 -164 387 -94 530 31 64 97 131 150
153 49 20 159 17 250 -6 43 -11 80 -18 82 -16 5 5 -78 126 -134 196 -64 80
-217 233 -298 300 -205 168 -450 286 -703 341 -113 24 -414 34 -572 19z m-204
-370 c285 -17 493 -62 548 -116 36 -37 36 -91 0 -128 -32 -32 -69 -34 -140 -7
-90 35 -362 71 -532 71 -78 0 -117 19 -131 63 -13 38 -4 73 25 98 37 32 32 31
230 19z m1231 -103 c68 -25 120 -73 153 -141 30 -61 32 -72 28 -140 -7 -114
-62 -192 -168 -239 -56 -26 -158 -27 -213 -3 -55 24 -122 89 -148 144 -66 138
11 325 155 376 49 17 149 19 193 3z"/>
<path d="M2295 4416 c-59 -26 -72 -101 -26 -147 49 -49 129 -30 150 34 26 78
-49 146 -124 113z"/>
<path d="M2820 4040 c-54 -58 -56 -175 -6 -286 64 -139 155 -208 409 -309 523
-207 1338 -484 1711 -581 94 -24 172 -42 174 -40 8 9 -299 217 -583 396 -831
524 -1458 850 -1635 850 -34 0 -47 -6 -70 -30z"/>
</g>
</svg>
